<svg width="295" height="64" viewBox="0 0 295 64" fill="none" xmlns="http://www.w3.org/2000/svg">
<circle cx="32" cy="32" r="32" fill="#00816D"/>
<line x1="31" y1="14" x2="31" y2="36.5" stroke="white" stroke-width="4"/>
<line x1="29" y1="37" x2="48" y2="37" stroke="white" stroke-width="4"/>
<line x1="20" y1="45" x2="50" y2="45" stroke="white" stroke-width="4"/>
<line x1="22" y1="12" x2="22" y2="47" stroke="white" stroke-width="4"/>
<path d="M86.6875 46.4219H91.2344C91.1719 48.1302 90.8281 49.5729 90.2031 50.75C89.5781 51.9167 88.6875 52.8021 87.5312 53.4062C86.3854 54.0104 85 54.3125 83.375 54.3125C82.1146 54.3125 80.9948 54.1042 80.0156 53.6875C79.0365 53.2604 78.2031 52.6354 77.5156 51.8125C76.8281 50.9896 76.3073 49.974 75.9531 48.7656C75.6094 47.5469 75.4375 46.1458 75.4375 44.5625V40.7031C75.4375 39.1198 75.6198 37.7188 75.9844 36.5C76.3594 35.2812 76.8906 34.2604 77.5781 33.4375C78.276 32.6042 79.1146 31.9792 80.0938 31.5625C81.0833 31.1354 82.1979 30.9219 83.4375 30.9219C85.0938 30.9219 86.4792 31.2344 87.5938 31.8594C88.7083 32.4844 89.5677 33.3958 90.1719 34.5938C90.7865 35.7812 91.1562 37.2344 91.2812 38.9531H86.7188C86.6875 37.8698 86.5625 37.0208 86.3438 36.4062C86.1354 35.7812 85.8021 35.3438 85.3438 35.0938C84.8854 34.8333 84.25 34.7031 83.4375 34.7031C82.8333 34.7031 82.3125 34.8125 81.875 35.0312C81.4375 35.2396 81.0781 35.5781 80.7969 36.0469C80.5156 36.5156 80.3073 37.1302 80.1719 37.8906C80.0469 38.651 79.9844 39.5781 79.9844 40.6719V44.5625C79.9844 45.6354 80.0417 46.5521 80.1562 47.3125C80.2708 48.0625 80.4531 48.6771 80.7031 49.1562C80.9531 49.6354 81.2917 49.9844 81.7188 50.2031C82.1562 50.4219 82.7083 50.5312 83.375 50.5312C84.1458 50.5312 84.7656 50.4167 85.2344 50.1875C85.7135 49.9583 86.0677 49.5469 86.2969 48.9531C86.526 48.3594 86.6562 47.5156 86.6875 46.4219ZM102.328 35.3125L97.4375 54H92.6094L99.7188 31.25H102.734L102.328 35.3125ZM106.188 54L101.266 35.3125L100.812 31.25H103.875L111.047 54H106.188ZM106.359 45.5156V49.3125H96.0938V45.5156H106.359ZM120.969 45.9844H116.312V42.1875H120.969C121.615 42.1875 122.141 42.0417 122.547 41.75C122.964 41.4583 123.266 41.0573 123.453 40.5469C123.641 40.026 123.734 39.4427 123.734 38.7969C123.734 38.1406 123.635 37.5312 123.438 36.9688C123.25 36.3958 122.953 35.9323 122.547 35.5781C122.151 35.224 121.625 35.0469 120.969 35.0469H117.781V54H113.219V31.25H120.969C122.5 31.25 123.818 31.5729 124.922 32.2188C126.026 32.8646 126.87 33.7552 127.453 34.8906C128.047 36.0156 128.344 37.3073 128.344 38.7656C128.344 40.2344 128.047 41.5104 127.453 42.5938C126.87 43.6667 126.026 44.5 124.922 45.0938C123.818 45.6875 122.5 45.9844 120.969 45.9844ZM136.156 31.25V54H131.609V31.25H136.156ZM144.375 31.25L147.625 38.8438L150.719 31.25H155.766L150.281 42.5156L155.875 54H150.625L147.391 46.2344L144.156 54H139.016L144.703 42.4219L139.141 31.25H144.375ZM166.484 35.3125L161.594 54H156.766L163.875 31.25H166.891L166.484 35.3125ZM170.344 54L165.422 35.3125L164.969 31.25H168.031L175.203 54H170.344ZM170.516 45.5156V49.3125H160.25V45.5156H170.516ZM185.047 44.0781H180.391L180.375 40.7656H184.344C184.969 40.7656 185.479 40.6615 185.875 40.4531C186.281 40.2344 186.578 39.9167 186.766 39.5C186.964 39.0729 187.062 38.5573 187.062 37.9531C187.062 37.2552 186.974 36.6979 186.797 36.2812C186.62 35.8542 186.333 35.5417 185.938 35.3438C185.542 35.1458 185.026 35.0469 184.391 35.0469H181.953V54H177.375V31.25H184.391C185.526 31.25 186.542 31.375 187.438 31.625C188.333 31.875 189.094 32.2552 189.719 32.7656C190.344 33.276 190.818 33.9219 191.141 34.7031C191.474 35.4844 191.641 36.4062 191.641 37.4688C191.641 38.4062 191.453 39.2708 191.078 40.0625C190.703 40.8542 190.115 41.5 189.312 42C188.521 42.5 187.484 42.7812 186.203 42.8438L185.047 44.0781ZM184.891 54H179.094L180.922 50.2188H184.891C185.495 50.2188 185.984 50.0885 186.359 49.8281C186.734 49.5677 187.005 49.2188 187.172 48.7812C187.339 48.3333 187.422 47.8229 187.422 47.25C187.422 46.6042 187.344 46.0417 187.188 45.5625C187.042 45.0833 186.797 44.7188 186.453 44.4688C186.109 44.2083 185.646 44.0781 185.062 44.0781H181.125L181.156 40.7656H185.938L187.016 42.0781C188.234 42.0365 189.208 42.2708 189.938 42.7812C190.667 43.2812 191.188 43.9375 191.5 44.75C191.823 45.5521 191.984 46.4062 191.984 47.3125C191.984 48.7708 191.708 50 191.156 51C190.615 51.9896 189.818 52.7396 188.766 53.25C187.714 53.75 186.422 54 184.891 54ZM203.578 35.3125L198.688 54H193.859L200.969 31.25H203.984L203.578 35.3125ZM207.438 54L202.516 35.3125L202.062 31.25H205.125L212.297 54H207.438ZM207.609 45.5156V49.3125H197.344V45.5156H207.609ZM229.328 46.9844V31.25H233.891V47C233.891 48.5104 233.599 49.8177 233.016 50.9219C232.443 52.0156 231.661 52.8542 230.672 53.4375C229.682 54.0208 228.568 54.3125 227.328 54.3125C226.057 54.3125 224.922 54.0625 223.922 53.5625C222.932 53.0521 222.151 52.2812 221.578 51.25C221.005 50.2083 220.719 48.8854 220.719 47.2812H225.312C225.312 48.0938 225.396 48.7344 225.562 49.2031C225.729 49.6719 225.964 50.0104 226.266 50.2188C226.578 50.4271 226.932 50.5312 227.328 50.5312C227.755 50.5312 228.115 50.3906 228.406 50.1094C228.708 49.8281 228.938 49.4271 229.094 48.9062C229.25 48.375 229.328 47.7344 229.328 46.9844ZM253.516 40.8594V44.6562C253.516 46.2604 253.318 47.6667 252.922 48.875C252.536 50.0729 251.984 51.0781 251.266 51.8906C250.557 52.6927 249.698 53.2969 248.688 53.7031C247.688 54.1094 246.578 54.3125 245.359 54.3125C244.141 54.3125 243.026 54.1094 242.016 53.7031C241.016 53.2969 240.151 52.6927 239.422 51.8906C238.703 51.0781 238.146 50.0729 237.75 48.875C237.354 47.6667 237.156 46.2604 237.156 44.6562V40.8594C237.156 39.2135 237.349 37.776 237.734 36.5469C238.12 35.3073 238.677 34.276 239.406 33.4531C240.135 32.6198 241 31.9948 242 31.5781C243 31.151 244.109 30.9375 245.328 30.9375C246.547 30.9375 247.656 31.151 248.656 31.5781C249.656 31.9948 250.521 32.6198 251.25 33.4531C251.979 34.276 252.536 35.3073 252.922 36.5469C253.318 37.776 253.516 39.2135 253.516 40.8594ZM248.969 44.6562V40.8281C248.969 39.7448 248.891 38.8229 248.734 38.0625C248.578 37.2917 248.344 36.6615 248.031 36.1719C247.719 35.6823 247.339 35.3229 246.891 35.0938C246.443 34.8646 245.922 34.75 245.328 34.75C244.734 34.75 244.208 34.8646 243.75 35.0938C243.302 35.3229 242.922 35.6823 242.609 36.1719C242.307 36.6615 242.078 37.2917 241.922 38.0625C241.776 38.8229 241.703 39.7448 241.703 40.8281V44.6562C241.703 45.6979 241.781 46.5885 241.938 47.3281C242.094 48.0677 242.328 48.6719 242.641 49.1406C242.953 49.6094 243.333 49.9583 243.781 50.1875C244.24 50.4062 244.766 50.5156 245.359 50.5156C245.943 50.5156 246.458 50.4062 246.906 50.1875C247.365 49.9583 247.745 49.6094 248.047 49.1406C248.349 48.6719 248.578 48.0677 248.734 47.3281C248.891 46.5885 248.969 45.6979 248.969 44.6562ZM264.516 44.0781H259.859L259.844 40.7656H263.812C264.438 40.7656 264.948 40.6615 265.344 40.4531C265.75 40.2344 266.047 39.9167 266.234 39.5C266.432 39.0729 266.531 38.5573 266.531 37.9531C266.531 37.2552 266.443 36.6979 266.266 36.2812C266.089 35.8542 265.802 35.5417 265.406 35.3438C265.01 35.1458 264.495 35.0469 263.859 35.0469H261.422V54H256.844V31.25H263.859C264.995 31.25 266.01 31.375 266.906 31.625C267.802 31.875 268.562 32.2552 269.188 32.7656C269.812 33.276 270.286 33.9219 270.609 34.7031C270.943 35.4844 271.109 36.4062 271.109 37.4688C271.109 38.4062 270.922 39.2708 270.547 40.0625C270.172 40.8542 269.583 41.5 268.781 42C267.99 42.5 266.953 42.7812 265.672 42.8438L264.516 44.0781ZM264.359 54H258.562L260.391 50.2188H264.359C264.964 50.2188 265.453 50.0885 265.828 49.8281C266.203 49.5677 266.474 49.2188 266.641 48.7812C266.807 48.3333 266.891 47.8229 266.891 47.25C266.891 46.6042 266.812 46.0417 266.656 45.5625C266.51 45.0833 266.266 44.7188 265.922 44.4688C265.578 44.2083 265.115 44.0781 264.531 44.0781H260.594L260.625 40.7656H265.406L266.484 42.0781C267.703 42.0365 268.677 42.2708 269.406 42.7812C270.135 43.2812 270.656 43.9375 270.969 44.75C271.292 45.5521 271.453 46.4062 271.453 47.3125C271.453 48.7708 271.177 50 270.625 51C270.083 51.9896 269.286 52.7396 268.234 53.25C267.182 53.75 265.891 54 264.359 54ZM284.438 48.0156C284.438 47.6094 284.401 47.2396 284.328 46.9062C284.255 46.5729 284.099 46.2656 283.859 45.9844C283.63 45.7031 283.292 45.4219 282.844 45.1406C282.406 44.8594 281.833 44.5677 281.125 44.2656C280.281 43.9115 279.464 43.5365 278.672 43.1406C277.88 42.7344 277.167 42.2656 276.531 41.7344C275.896 41.2031 275.391 40.5781 275.016 39.8594C274.651 39.1302 274.469 38.276 274.469 37.2969C274.469 36.3385 274.641 35.4688 274.984 34.6875C275.339 33.9062 275.839 33.2396 276.484 32.6875C277.13 32.125 277.885 31.6927 278.75 31.3906C279.625 31.0885 280.599 30.9375 281.672 30.9375C283.13 30.9375 284.391 31.2396 285.453 31.8438C286.526 32.4479 287.354 33.276 287.938 34.3281C288.531 35.3802 288.828 36.5885 288.828 37.9531H284.266C284.266 37.3073 284.172 36.7396 283.984 36.25C283.807 35.75 283.521 35.3594 283.125 35.0781C282.729 34.7969 282.219 34.6562 281.594 34.6562C281.01 34.6562 280.526 34.776 280.141 35.0156C279.766 35.2448 279.484 35.5625 279.297 35.9688C279.12 36.3646 279.031 36.8125 279.031 37.3125C279.031 37.6875 279.12 38.026 279.297 38.3281C279.484 38.6198 279.74 38.8854 280.062 39.125C280.385 39.3542 280.766 39.5781 281.203 39.7969C281.651 40.0156 282.141 40.2292 282.672 40.4375C283.703 40.8438 284.615 41.2917 285.406 41.7812C286.198 42.2604 286.859 42.8021 287.391 43.4062C287.922 44 288.323 44.6719 288.594 45.4219C288.865 46.1719 289 47.026 289 47.9844C289 48.9323 288.833 49.7969 288.5 50.5781C288.177 51.349 287.703 52.0156 287.078 52.5781C286.453 53.1302 285.698 53.5573 284.812 53.8594C283.938 54.1615 282.958 54.3125 281.875 54.3125C280.823 54.3125 279.828 54.1667 278.891 53.875C277.953 53.5729 277.125 53.1198 276.406 52.5156C275.698 51.901 275.141 51.125 274.734 50.1875C274.328 49.2396 274.125 48.1198 274.125 46.8281H278.703C278.703 47.5156 278.771 48.1042 278.906 48.5938C279.042 49.0729 279.25 49.4583 279.531 49.75C279.812 50.0312 280.156 50.2448 280.562 50.3906C280.979 50.526 281.453 50.5938 281.984 50.5938C282.589 50.5938 283.068 50.4792 283.422 50.25C283.786 50.0208 284.047 49.7135 284.203 49.3281C284.359 48.9427 284.438 48.5052 284.438 48.0156Z" fill="#00816D"/>
</svg>
