<svg width="283" height="64" viewBox="0 0 283 64" fill="none" xmlns="http://www.w3.org/2000/svg">
<circle cx="32" cy="32" r="32" fill="#00816D"/>
<line x1="31" y1="14" x2="31" y2="36.5" stroke="white" stroke-width="4"/>
<line x1="29" y1="37" x2="48" y2="37" stroke="white" stroke-width="4"/>
<line x1="20" y1="45" x2="50" y2="45" stroke="white" stroke-width="4"/>
<line x1="22" y1="12" x2="22" y2="47" stroke="white" stroke-width="4"/>
<path d="M83.344 55.384C81.3813 55.384 79.824 55.032 78.672 54.328C77.5413 53.6027 76.7413 52.6 76.272 51.32C75.8027 50.0187 75.568 48.4933 75.568 46.744V37.4C75.568 35.608 75.8027 34.072 76.272 32.792C76.7413 31.4907 77.5413 30.488 78.672 29.784C79.824 29.08 81.3813 28.728 83.344 28.728C85.264 28.728 86.7573 29.048 87.824 29.688C88.912 30.3067 89.68 31.1813 90.128 32.312C90.576 33.4427 90.8 34.744 90.8 36.216V38.456H85.2V35.864C85.2 35.352 85.168 34.8613 85.104 34.392C85.0613 33.9227 84.912 33.5387 84.656 33.24C84.4 32.92 83.9627 32.76 83.344 32.76C82.7467 32.76 82.2987 32.92 82 33.24C81.7227 33.56 81.5413 33.9653 81.456 34.456C81.392 34.9253 81.36 35.4267 81.36 35.96V48.152C81.36 48.728 81.4027 49.2613 81.488 49.752C81.5947 50.2213 81.7867 50.6053 82.064 50.904C82.3627 51.1813 82.7893 51.32 83.344 51.32C83.9413 51.32 84.368 51.1707 84.624 50.872C84.88 50.552 85.04 50.1467 85.104 49.656C85.168 49.1653 85.2 48.664 85.2 48.152V45.432H90.8V47.672C90.8 49.144 90.576 50.4667 90.128 51.64C89.7013 52.792 88.944 53.7093 87.856 54.392C86.7893 55.0533 85.2853 55.384 83.344 55.384ZM92.7033 55L97.5993 29.08H104.127L108.959 55H103.679L102.815 49.528H99.0073L98.1113 55H92.7033ZM99.5193 46.104H102.271L100.895 35.992L99.5193 46.104ZM111.576 55V29.08H120.28C121.838 29.08 123.118 29.3787 124.12 29.976C125.123 30.552 125.87 31.4053 126.36 32.536C126.851 33.6453 127.096 35 127.096 36.6C127.096 38.6053 126.766 40.1413 126.104 41.208C125.443 42.2533 124.547 42.9787 123.416 43.384C122.286 43.7893 121.016 43.992 119.608 43.992H117.304V55H111.576ZM117.304 39.992H119.224C119.928 39.992 120.462 39.864 120.824 39.608C121.187 39.352 121.422 38.968 121.528 38.456C121.656 37.944 121.72 37.2933 121.72 36.504C121.72 35.8427 121.667 35.2667 121.56 34.776C121.475 34.264 121.251 33.8587 120.888 33.56C120.526 33.2613 119.96 33.112 119.192 33.112H117.304V39.992ZM129.89 55V29.08H135.618V55H129.89ZM137.787 55L142.811 41.048L138.011 29.08H143.419L146.267 36.088L148.571 29.08H153.339L148.795 42.552L153.851 55H148.475L145.307 47.256L142.523 55H137.787ZM154.703 55L159.599 29.08H166.127L170.959 55H165.679L164.815 49.528H161.007L160.111 55H154.703ZM161.519 46.104H164.271L162.895 35.992L161.519 46.104ZM173.576 55V29.08H180.328C181.438 29.08 182.483 29.1653 183.464 29.336C184.467 29.5067 185.352 29.8373 186.12 30.328C186.888 30.7973 187.486 31.48 187.912 32.376C188.36 33.2507 188.584 34.4133 188.584 35.864C188.584 36.9093 188.424 37.7947 188.104 38.52C187.806 39.224 187.368 39.7893 186.792 40.216C186.238 40.6427 185.566 40.9307 184.776 41.08C185.779 41.208 186.622 41.5387 187.304 42.072C187.987 42.584 188.499 43.2773 188.84 44.152C189.203 45.0267 189.384 46.0827 189.384 47.32C189.384 48.664 189.203 49.8267 188.84 50.808C188.499 51.768 187.998 52.5573 187.336 53.176C186.675 53.7947 185.854 54.2533 184.872 54.552C183.912 54.8507 182.803 55 181.544 55H173.576ZM179.304 51H180.52C181.779 51 182.643 50.68 183.112 50.04C183.603 49.4 183.848 48.4613 183.848 47.224C183.848 46.2427 183.742 45.464 183.528 44.888C183.315 44.312 182.963 43.896 182.472 43.64C181.982 43.3627 181.32 43.224 180.488 43.224H179.304V51ZM179.304 39.448H180.424C181.299 39.448 181.96 39.32 182.408 39.064C182.856 38.7867 183.155 38.392 183.304 37.88C183.475 37.368 183.56 36.7493 183.56 36.024C183.56 35.3413 183.432 34.776 183.176 34.328C182.942 33.8587 182.579 33.5067 182.088 33.272C181.619 33.0373 181.022 32.92 180.296 32.92H179.304V39.448ZM191.078 55L195.974 29.08H202.502L207.334 55H202.054L201.19 49.528H197.382L196.486 55H191.078ZM197.894 46.104H200.646L199.27 35.992L197.894 46.104ZM216.635 55.672V51.672C217.211 51.672 217.701 51.64 218.107 51.576C218.512 51.512 218.832 51.3947 219.067 51.224C219.301 51.032 219.472 50.7653 219.579 50.424C219.685 50.0613 219.739 49.6027 219.739 49.048V29.08H225.467V49.304C225.467 50.712 225.285 51.896 224.923 52.856C224.581 53.7947 223.973 54.4987 223.099 54.968C222.224 55.4373 220.997 55.672 219.419 55.672H216.635ZM236.719 55.384C234.778 55.384 233.242 55.0427 232.111 54.36C230.98 53.6773 230.17 52.696 229.679 51.416C229.188 50.136 228.943 48.6107 228.943 46.84V37.208C228.943 35.416 229.188 33.8907 229.679 32.632C230.17 31.3733 230.98 30.4133 232.111 29.752C233.242 29.0693 234.778 28.728 236.719 28.728C238.682 28.728 240.228 29.0693 241.359 29.752C242.511 30.4133 243.332 31.3733 243.823 32.632C244.314 33.8907 244.559 35.416 244.559 37.208V46.84C244.559 48.6107 244.314 50.136 243.823 51.416C243.332 52.696 242.511 53.6773 241.359 54.36C240.228 55.0427 238.682 55.384 236.719 55.384ZM236.719 51.32C237.316 51.32 237.754 51.1707 238.031 50.872C238.308 50.5733 238.49 50.1893 238.575 49.72C238.66 49.2507 238.703 48.7707 238.703 48.28V35.8C238.703 35.288 238.66 34.808 238.575 34.36C238.49 33.8907 238.308 33.5067 238.031 33.208C237.754 32.9093 237.316 32.76 236.719 32.76C236.164 32.76 235.748 32.9093 235.471 33.208C235.194 33.5067 235.012 33.8907 234.927 34.36C234.842 34.808 234.799 35.288 234.799 35.8V48.28C234.799 48.7707 234.831 49.2507 234.895 49.72C234.98 50.1893 235.151 50.5733 235.407 50.872C235.684 51.1707 236.122 51.32 236.719 51.32ZM248.045 55V29.08H254.797C255.906 29.08 256.952 29.1653 257.933 29.336C258.936 29.5067 259.821 29.8373 260.589 30.328C261.357 30.7973 261.954 31.48 262.381 32.376C262.829 33.2507 263.053 34.4133 263.053 35.864C263.053 36.9093 262.893 37.7947 262.573 38.52C262.274 39.224 261.837 39.7893 261.261 40.216C260.706 40.6427 260.034 40.9307 259.245 41.08C260.248 41.208 261.09 41.5387 261.773 42.072C262.456 42.584 262.968 43.2773 263.309 44.152C263.672 45.0267 263.853 46.0827 263.853 47.32C263.853 48.664 263.672 49.8267 263.309 50.808C262.968 51.768 262.466 52.5573 261.805 53.176C261.144 53.7947 260.322 54.2533 259.341 54.552C258.381 54.8507 257.272 55 256.013 55H248.045ZM253.773 51H254.989C256.248 51 257.112 50.68 257.581 50.04C258.072 49.4 258.317 48.4613 258.317 47.224C258.317 46.2427 258.21 45.464 257.997 44.888C257.784 44.312 257.432 43.896 256.941 43.64C256.45 43.3627 255.789 43.224 254.957 43.224H253.773V51ZM253.773 39.448H254.893C255.768 39.448 256.429 39.32 256.877 39.064C257.325 38.7867 257.624 38.392 257.773 37.88C257.944 37.368 258.029 36.7493 258.029 36.024C258.029 35.3413 257.901 34.776 257.645 34.328C257.41 33.8587 257.048 33.5067 256.557 33.272C256.088 33.0373 255.49 32.92 254.765 32.92H253.773V39.448ZM273.738 55.384C272.116 55.384 270.762 55.096 269.674 54.52C268.586 53.944 267.764 53.0587 267.21 51.864C266.655 50.648 266.346 49.08 266.282 47.16L271.178 46.424C271.199 47.5333 271.295 48.4293 271.466 49.112C271.658 49.7947 271.914 50.2853 272.234 50.584C272.575 50.8827 272.98 51.032 273.45 51.032C274.047 51.032 274.431 50.8293 274.602 50.424C274.794 50.0187 274.89 49.592 274.89 49.144C274.89 48.0773 274.634 47.1813 274.122 46.456C273.61 45.7093 272.916 44.9627 272.042 44.216L269.802 42.264C268.82 41.432 267.988 40.4933 267.306 39.448C266.644 38.3813 266.314 37.0693 266.314 35.512C266.314 33.3147 266.964 31.64 268.266 30.488C269.567 29.3147 271.338 28.728 273.578 28.728C274.964 28.728 276.074 28.9627 276.906 29.432C277.759 29.9013 278.399 30.52 278.826 31.288C279.274 32.0347 279.572 32.8347 279.722 33.688C279.892 34.52 279.988 35.32 280.01 36.088L275.082 36.696C275.06 35.928 275.007 35.2667 274.922 34.712C274.858 34.136 274.708 33.6987 274.474 33.4C274.239 33.08 273.876 32.92 273.385 32.92C272.852 32.92 272.458 33.144 272.202 33.592C271.967 34.04 271.85 34.488 271.85 34.936C271.85 35.896 272.074 36.6853 272.522 37.304C272.991 37.9013 273.599 38.5307 274.345 39.192L276.49 41.08C277.62 42.04 278.57 43.128 279.338 44.344C280.127 45.56 280.522 47.064 280.522 48.856C280.522 50.072 280.244 51.1813 279.69 52.184C279.135 53.1653 278.346 53.944 277.322 54.52C276.319 55.096 275.124 55.384 273.738 55.384Z" fill="#00816D"/>
</svg>
