<svg width="306" height="64" viewBox="0 0 306 64" fill="none" xmlns="http://www.w3.org/2000/svg">
<circle cx="32" cy="32" r="32" fill="#31A913"/>
<line x1="32.5" y1="14" x2="32.5" y2="32" stroke="white" stroke-width="7"/>
<line x1="29" y1="28.5" x2="47" y2="28.5" stroke="white" stroke-width="7"/>
<line x1="16" y1="41.5" x2="46" y2="41.5" stroke="white" stroke-width="7"/>
<line x1="19.5" y1="15" x2="19.5" y2="45" stroke="white" stroke-width="7"/>
<path d="M96.5568 34.875H91.5795C91.4886 34.2311 91.303 33.6591 91.0227 33.1591C90.7424 32.6515 90.3826 32.2197 89.9432 31.8636C89.5038 31.5076 88.9962 31.2348 88.4205 31.0455C87.8523 30.8561 87.2348 30.7614 86.5682 30.7614C85.3636 30.7614 84.3144 31.0606 83.4205 31.6591C82.5265 32.25 81.8333 33.1136 81.3409 34.25C80.8485 35.3788 80.6023 36.75 80.6023 38.3636C80.6023 40.0227 80.8485 41.4167 81.3409 42.5455C81.8409 43.6742 82.5379 44.5265 83.4318 45.1023C84.3258 45.678 85.3598 45.9659 86.5341 45.9659C87.1932 45.9659 87.803 45.8788 88.3636 45.7045C88.9318 45.5303 89.4356 45.2765 89.875 44.9432C90.3144 44.6023 90.678 44.1894 90.9659 43.7045C91.2614 43.2197 91.4659 42.6667 91.5795 42.0455L96.5568 42.0682C96.428 43.1364 96.1061 44.1667 95.5909 45.1591C95.0833 46.1439 94.3977 47.0265 93.5341 47.8068C92.678 48.5795 91.6553 49.1932 90.4659 49.6477C89.2841 50.0947 87.947 50.3182 86.4545 50.3182C84.3788 50.3182 82.5227 49.8485 80.8864 48.9091C79.2576 47.9697 77.9697 46.6098 77.0227 44.8295C76.0833 43.0492 75.6136 40.8939 75.6136 38.3636C75.6136 35.8258 76.0909 33.6667 77.0455 31.8864C78 30.1061 79.2955 28.75 80.9318 27.8182C82.5682 26.8788 84.4091 26.4091 86.4545 26.4091C87.803 26.4091 89.053 26.5985 90.2045 26.9773C91.3636 27.3561 92.3902 27.9091 93.2841 28.6364C94.178 29.3561 94.9053 30.2386 95.4659 31.2841C96.0341 32.3295 96.3977 33.5265 96.5568 34.875ZM104.972 50.3295C103.858 50.3295 102.866 50.1364 101.994 49.75C101.123 49.3561 100.434 48.7765 99.9261 48.0114C99.4261 47.2386 99.1761 46.2765 99.1761 45.125C99.1761 44.1553 99.3542 43.3409 99.7102 42.6818C100.066 42.0227 100.551 41.4924 101.165 41.0909C101.778 40.6894 102.475 40.3864 103.256 40.1818C104.044 39.9773 104.869 39.8333 105.733 39.75C106.748 39.6439 107.566 39.5455 108.188 39.4545C108.809 39.3561 109.259 39.2121 109.54 39.0227C109.82 38.8333 109.96 38.553 109.96 38.1818V38.1136C109.96 37.3939 109.733 36.8371 109.278 36.4432C108.831 36.0492 108.195 35.8523 107.369 35.8523C106.498 35.8523 105.805 36.0455 105.29 36.4318C104.775 36.8106 104.434 37.2879 104.267 37.8636L99.7898 37.5C100.017 36.4394 100.464 35.5227 101.131 34.75C101.797 33.9697 102.657 33.3712 103.71 32.9545C104.771 32.5303 105.998 32.3182 107.392 32.3182C108.362 32.3182 109.29 32.4318 110.176 32.6591C111.07 32.8864 111.862 33.2386 112.551 33.7159C113.248 34.1932 113.797 34.8068 114.199 35.5568C114.6 36.2992 114.801 37.1894 114.801 38.2273V50H110.21V47.5795H110.074C109.794 48.125 109.419 48.6061 108.949 49.0227C108.479 49.4318 107.915 49.7538 107.256 49.9886C106.597 50.2159 105.835 50.3295 104.972 50.3295ZM106.358 46.9886C107.07 46.9886 107.699 46.8485 108.244 46.5682C108.79 46.2803 109.218 45.8939 109.528 45.4091C109.839 44.9242 109.994 44.375 109.994 43.7614V41.9091C109.843 42.0076 109.634 42.0985 109.369 42.1818C109.112 42.2576 108.82 42.3295 108.494 42.3977C108.169 42.4583 107.843 42.5152 107.517 42.5682C107.191 42.6136 106.896 42.6553 106.631 42.6932C106.063 42.7765 105.566 42.9091 105.142 43.0909C104.718 43.2727 104.388 43.5189 104.153 43.8295C103.919 44.1326 103.801 44.5114 103.801 44.9659C103.801 45.625 104.04 46.1288 104.517 46.4773C105.002 46.8182 105.616 46.9886 106.358 46.9886ZM118.557 56.5455V32.5455H123.33V35.4773H123.545C123.758 35.0076 124.064 34.5303 124.466 34.0455C124.875 33.553 125.405 33.1439 126.057 32.8182C126.716 32.4848 127.534 32.3182 128.511 32.3182C129.784 32.3182 130.958 32.6515 132.034 33.3182C133.11 33.9773 133.97 34.9735 134.614 36.3068C135.258 37.6326 135.58 39.2955 135.58 41.2955C135.58 43.2424 135.265 44.8864 134.636 46.2273C134.015 47.5606 133.167 48.572 132.091 49.2614C131.023 49.9432 129.826 50.2841 128.5 50.2841C127.561 50.2841 126.761 50.1288 126.102 49.8182C125.451 49.5076 124.917 49.1174 124.5 48.6477C124.083 48.1705 123.765 47.6894 123.545 47.2045H123.398V56.5455H118.557ZM123.295 41.2727C123.295 42.3106 123.439 43.2159 123.727 43.9886C124.015 44.7614 124.432 45.3636 124.977 45.7955C125.523 46.2197 126.186 46.4318 126.966 46.4318C127.754 46.4318 128.42 46.2159 128.966 45.7841C129.511 45.3447 129.924 44.7386 130.205 43.9659C130.492 43.1856 130.636 42.2879 130.636 41.2727C130.636 40.2652 130.496 39.3788 130.216 38.6136C129.936 37.8485 129.523 37.25 128.977 36.8182C128.432 36.3864 127.761 36.1705 126.966 36.1705C126.178 36.1705 125.511 36.3788 124.966 36.7955C124.428 37.2121 124.015 37.803 123.727 38.5682C123.439 39.3333 123.295 40.2348 123.295 41.2727ZM138.807 50V32.5455H143.648V50H138.807ZM141.239 30.2955C140.519 30.2955 139.902 30.0568 139.386 29.5795C138.879 29.0947 138.625 28.5152 138.625 27.8409C138.625 27.1742 138.879 26.6023 139.386 26.125C139.902 25.6402 140.519 25.3977 141.239 25.3977C141.958 25.3977 142.572 25.6402 143.08 26.125C143.595 26.6023 143.852 27.1742 143.852 27.8409C143.852 28.5152 143.595 29.0947 143.08 29.5795C142.572 30.0568 141.958 30.2955 141.239 30.2955ZM151.571 32.5455L154.776 38.6477L158.06 32.5455H163.026L157.969 41.2727L163.162 50H158.219L154.776 43.9659L151.389 50H146.389L151.571 41.2727L146.571 32.5455H151.571ZM170.784 50.3295C169.67 50.3295 168.678 50.1364 167.807 49.75C166.936 49.3561 166.246 48.7765 165.739 48.0114C165.239 47.2386 164.989 46.2765 164.989 45.125C164.989 44.1553 165.167 43.3409 165.523 42.6818C165.879 42.0227 166.364 41.4924 166.977 41.0909C167.591 40.6894 168.288 40.3864 169.068 40.1818C169.856 39.9773 170.682 39.8333 171.545 39.75C172.561 39.6439 173.379 39.5455 174 39.4545C174.621 39.3561 175.072 39.2121 175.352 39.0227C175.633 38.8333 175.773 38.553 175.773 38.1818V38.1136C175.773 37.3939 175.545 36.8371 175.091 36.4432C174.644 36.0492 174.008 35.8523 173.182 35.8523C172.311 35.8523 171.617 36.0455 171.102 36.4318C170.587 36.8106 170.246 37.2879 170.08 37.8636L165.602 37.5C165.83 36.4394 166.277 35.5227 166.943 34.75C167.61 33.9697 168.47 33.3712 169.523 32.9545C170.583 32.5303 171.811 32.3182 173.205 32.3182C174.174 32.3182 175.102 32.4318 175.989 32.6591C176.883 32.8864 177.674 33.2386 178.364 33.7159C179.061 34.1932 179.61 34.8068 180.011 35.5568C180.413 36.2992 180.614 37.1894 180.614 38.2273V50H176.023V47.5795H175.886C175.606 48.125 175.231 48.6061 174.761 49.0227C174.292 49.4318 173.727 49.7538 173.068 49.9886C172.409 50.2159 171.648 50.3295 170.784 50.3295ZM172.17 46.9886C172.883 46.9886 173.511 46.8485 174.057 46.5682C174.602 46.2803 175.03 45.8939 175.341 45.4091C175.652 44.9242 175.807 44.375 175.807 43.7614V41.9091C175.655 42.0076 175.447 42.0985 175.182 42.1818C174.924 42.2576 174.633 42.3295 174.307 42.3977C173.981 42.4583 173.655 42.5152 173.33 42.5682C173.004 42.6136 172.708 42.6553 172.443 42.6932C171.875 42.7765 171.379 42.9091 170.955 43.0909C170.53 43.2727 170.201 43.5189 169.966 43.8295C169.731 44.1326 169.614 44.5114 169.614 44.9659C169.614 45.625 169.852 46.1288 170.33 46.4773C170.814 46.8182 171.428 46.9886 172.17 46.9886ZM184.46 50V26.7273H189.301V35.4773H189.449C189.661 35.0076 189.968 34.5303 190.369 34.0455C190.778 33.553 191.309 33.1439 191.96 32.8182C192.619 32.4848 193.438 32.3182 194.415 32.3182C195.688 32.3182 196.862 32.6515 197.938 33.3182C199.013 33.9773 199.873 34.9735 200.517 36.3068C201.161 37.6326 201.483 39.2955 201.483 41.2955C201.483 43.2424 201.169 44.8864 200.54 46.2273C199.919 47.5606 199.07 48.572 197.994 49.2614C196.926 49.9432 195.729 50.2841 194.403 50.2841C193.464 50.2841 192.665 50.1288 192.006 49.8182C191.354 49.5076 190.82 49.1174 190.403 48.6477C189.987 48.1705 189.669 47.6894 189.449 47.2045H189.233V50H184.46ZM189.199 41.2727C189.199 42.3106 189.343 43.2159 189.631 43.9886C189.919 44.7614 190.335 45.3636 190.881 45.7955C191.426 46.2197 192.089 46.4318 192.869 46.4318C193.657 46.4318 194.324 46.2159 194.869 45.7841C195.415 45.3447 195.828 44.7386 196.108 43.9659C196.396 43.1856 196.54 42.2879 196.54 41.2727C196.54 40.2652 196.4 39.3788 196.119 38.6136C195.839 37.8485 195.426 37.25 194.881 36.8182C194.335 36.3864 193.665 36.1705 192.869 36.1705C192.081 36.1705 191.415 36.3788 190.869 36.7955C190.331 37.2121 189.919 37.803 189.631 38.5682C189.343 39.3333 189.199 40.2348 189.199 41.2727ZM209.69 50.3295C208.577 50.3295 207.584 50.1364 206.713 49.75C205.842 49.3561 205.152 48.7765 204.645 48.0114C204.145 47.2386 203.895 46.2765 203.895 45.125C203.895 44.1553 204.073 43.3409 204.429 42.6818C204.785 42.0227 205.27 41.4924 205.884 41.0909C206.497 40.6894 207.194 40.3864 207.974 40.1818C208.762 39.9773 209.588 39.8333 210.452 39.75C211.467 39.6439 212.285 39.5455 212.906 39.4545C213.527 39.3561 213.978 39.2121 214.259 39.0227C214.539 38.8333 214.679 38.553 214.679 38.1818V38.1136C214.679 37.3939 214.452 36.8371 213.997 36.4432C213.55 36.0492 212.914 35.8523 212.088 35.8523C211.217 35.8523 210.524 36.0455 210.009 36.4318C209.493 36.8106 209.152 37.2879 208.986 37.8636L204.509 37.5C204.736 36.4394 205.183 35.5227 205.849 34.75C206.516 33.9697 207.376 33.3712 208.429 32.9545C209.49 32.5303 210.717 32.3182 212.111 32.3182C213.08 32.3182 214.009 32.4318 214.895 32.6591C215.789 32.8864 216.58 33.2386 217.27 33.7159C217.967 34.1932 218.516 34.8068 218.918 35.5568C219.319 36.2992 219.52 37.1894 219.52 38.2273V50H214.929V47.5795H214.793C214.512 48.125 214.137 48.6061 213.668 49.0227C213.198 49.4318 212.634 49.7538 211.974 49.9886C211.315 50.2159 210.554 50.3295 209.69 50.3295ZM211.077 46.9886C211.789 46.9886 212.418 46.8485 212.963 46.5682C213.509 46.2803 213.937 45.8939 214.247 45.4091C214.558 44.9242 214.713 44.375 214.713 43.7614V41.9091C214.562 42.0076 214.353 42.0985 214.088 42.1818C213.83 42.2576 213.539 42.3295 213.213 42.3977C212.887 42.4583 212.562 42.5152 212.236 42.5682C211.91 42.6136 211.615 42.6553 211.349 42.6932C210.781 42.7765 210.285 42.9091 209.861 43.0909C209.437 43.2727 209.107 43.5189 208.872 43.8295C208.637 44.1326 208.52 44.5114 208.52 44.9659C208.52 45.625 208.759 46.1288 209.236 46.4773C209.721 46.8182 210.334 46.9886 211.077 46.9886ZM240.091 26.7273H244.955V42.9545C244.955 44.4545 244.617 45.7576 243.943 46.8636C243.277 47.9697 242.348 48.822 241.159 49.4205C239.97 50.0189 238.587 50.3182 237.011 50.3182C235.61 50.3182 234.337 50.072 233.193 49.5795C232.057 49.0795 231.155 48.322 230.489 47.3068C229.822 46.2841 229.492 45 229.5 43.4545H234.398C234.413 44.0682 234.538 44.5947 234.773 45.0341C235.015 45.4659 235.345 45.7992 235.761 46.0341C236.186 46.2614 236.686 46.375 237.261 46.375C237.867 46.375 238.379 46.2462 238.795 45.9886C239.22 45.7235 239.542 45.3371 239.761 44.8295C239.981 44.322 240.091 43.697 240.091 42.9545V26.7273ZM256.818 50.3409C255.053 50.3409 253.527 49.9659 252.239 49.2159C250.958 48.4583 249.97 47.4053 249.273 46.0568C248.576 44.7008 248.227 43.1288 248.227 41.3409C248.227 39.5379 248.576 37.9621 249.273 36.6136C249.97 35.2576 250.958 34.2045 252.239 33.4545C253.527 32.697 255.053 32.3182 256.818 32.3182C258.583 32.3182 260.106 32.697 261.386 33.4545C262.674 34.2045 263.667 35.2576 264.364 36.6136C265.061 37.9621 265.409 39.5379 265.409 41.3409C265.409 43.1288 265.061 44.7008 264.364 46.0568C263.667 47.4053 262.674 48.4583 261.386 49.2159C260.106 49.9659 258.583 50.3409 256.818 50.3409ZM256.841 46.5909C257.644 46.5909 258.314 46.3636 258.852 45.9091C259.39 45.447 259.795 44.8182 260.068 44.0227C260.348 43.2273 260.489 42.322 260.489 41.3068C260.489 40.2917 260.348 39.3864 260.068 38.5909C259.795 37.7955 259.39 37.1667 258.852 36.7045C258.314 36.2424 257.644 36.0114 256.841 36.0114C256.03 36.0114 255.348 36.2424 254.795 36.7045C254.25 37.1667 253.837 37.7955 253.557 38.5909C253.284 39.3864 253.148 40.2917 253.148 41.3068C253.148 42.322 253.284 43.2273 253.557 44.0227C253.837 44.8182 254.25 45.447 254.795 45.9091C255.348 46.3636 256.03 46.5909 256.841 46.5909ZM268.648 50V26.7273H273.489V35.4773H273.636C273.848 35.0076 274.155 34.5303 274.557 34.0455C274.966 33.553 275.496 33.1439 276.148 32.8182C276.807 32.4848 277.625 32.3182 278.602 32.3182C279.875 32.3182 281.049 32.6515 282.125 33.3182C283.201 33.9773 284.061 34.9735 284.705 36.3068C285.348 37.6326 285.67 39.2955 285.67 41.2955C285.67 43.2424 285.356 44.8864 284.727 46.2273C284.106 47.5606 283.258 48.572 282.182 49.2614C281.114 49.9432 279.917 50.2841 278.591 50.2841C277.652 50.2841 276.852 50.1288 276.193 49.8182C275.542 49.5076 275.008 49.1174 274.591 48.6477C274.174 48.1705 273.856 47.6894 273.636 47.2045H273.42V50H268.648ZM273.386 41.2727C273.386 42.3106 273.53 43.2159 273.818 43.9886C274.106 44.7614 274.523 45.3636 275.068 45.7955C275.614 46.2197 276.277 46.4318 277.057 46.4318C277.845 46.4318 278.511 46.2159 279.057 45.7841C279.602 45.3447 280.015 44.7386 280.295 43.9659C280.583 43.1856 280.727 42.2879 280.727 41.2727C280.727 40.2652 280.587 39.3788 280.307 38.6136C280.027 37.8485 279.614 37.25 279.068 36.8182C278.523 36.3864 277.852 36.1705 277.057 36.1705C276.269 36.1705 275.602 36.3788 275.057 36.7955C274.519 37.2121 274.106 37.803 273.818 38.5682C273.53 39.3333 273.386 40.2348 273.386 41.2727ZM303.423 37.5227L298.991 37.7955C298.916 37.4167 298.753 37.0758 298.503 36.7727C298.253 36.4621 297.923 36.2159 297.514 36.0341C297.113 35.8447 296.632 35.75 296.071 35.75C295.321 35.75 294.688 35.9091 294.173 36.2273C293.658 36.5379 293.401 36.9545 293.401 37.4773C293.401 37.8939 293.567 38.2462 293.901 38.5341C294.234 38.822 294.806 39.053 295.616 39.2273L298.776 39.8636C300.473 40.2121 301.738 40.7727 302.571 41.5455C303.404 42.3182 303.821 43.3333 303.821 44.5909C303.821 45.7348 303.484 46.7386 302.81 47.6023C302.143 48.4659 301.226 49.1402 300.06 49.625C298.901 50.1023 297.563 50.3409 296.048 50.3409C293.738 50.3409 291.897 49.8598 290.526 48.8977C289.162 47.928 288.363 46.6098 288.128 44.9432L292.889 44.6932C293.033 45.3977 293.382 45.9356 293.935 46.3068C294.488 46.6705 295.196 46.8523 296.06 46.8523C296.908 46.8523 297.59 46.6894 298.105 46.3636C298.628 46.0303 298.893 45.6023 298.901 45.0795C298.893 44.6402 298.707 44.2803 298.344 44C297.98 43.7121 297.42 43.4924 296.662 43.3409L293.639 42.7386C291.935 42.3977 290.666 41.8068 289.832 40.9659C289.007 40.125 288.594 39.053 288.594 37.75C288.594 36.6288 288.897 35.6629 289.503 34.8523C290.116 34.0417 290.976 33.4167 292.082 32.9773C293.196 32.5379 294.499 32.3182 295.991 32.3182C298.196 32.3182 299.931 32.7841 301.196 33.7159C302.469 34.6477 303.211 35.9167 303.423 37.5227Z" fill="black"/>
</svg>
