<svg viewBox="0 0 270 50" fill="none" xmlns="http://www.w3.org/2000/svg" preserveAspectRatio="true">
<circle cx="24" cy="24" r="24" fill="#00816D"/>
<line x1="24" y1="12" x2="24" y2="26" stroke="white" stroke-width="4"/>
<line x1="22" y1="27.25" x2="36" y2="27.25" stroke="white" stroke-width="4"/>
<line x1="15" y1="34" x2="38" y2="34" stroke="white" stroke-width="4"/>
<line x1="17" y1="10" x2="17" y2="36" stroke="white" stroke-width="4"/>
<path d="M65.344 40.384C63.3813 40.384 61.824 40.032 60.672 39.328C59.5413 38.6027 58.7413 37.6 58.272 36.32C57.8027 35.0187 57.568 33.4933 57.568 31.744V22.4C57.568 20.608 57.8027 19.072 58.272 17.792C58.7413 16.4907 59.5413 15.488 60.672 14.784C61.824 14.08 63.3813 13.728 65.344 13.728C67.264 13.728 68.7573 14.048 69.824 14.688C70.912 15.3067 71.68 16.1813 72.128 17.312C72.576 18.4427 72.8 19.744 72.8 21.216V23.456H67.2V20.864C67.2 20.352 67.168 19.8613 67.104 19.392C67.0613 18.9227 66.912 18.5387 66.656 18.24C66.4 17.92 65.9627 17.76 65.344 17.76C64.7467 17.76 64.2987 17.92 64 18.24C63.7227 18.56 63.5413 18.9653 63.456 19.456C63.392 19.9253 63.36 20.4267 63.36 20.96V33.152C63.36 33.728 63.4027 34.2613 63.488 34.752C63.5947 35.2213 63.7867 35.6053 64.064 35.904C64.3627 36.1813 64.7893 36.32 65.344 36.32C65.9413 36.32 66.368 36.1707 66.624 35.872C66.88 35.552 67.04 35.1467 67.104 34.656C67.168 34.1653 67.2 33.664 67.2 33.152V30.432H72.8V32.672C72.8 34.144 72.576 35.4667 72.128 36.64C71.7013 37.792 70.944 38.7093 69.856 39.392C68.7893 40.0533 67.2853 40.384 65.344 40.384ZM74.7033 40L79.5993 14.08H86.1273L90.9593 40H85.6793L84.8153 34.528H81.0073L80.1113 40H74.7033ZM81.5193 31.104H84.2713L82.8953 20.992L81.5193 31.104ZM93.5763 40V14.08H102.28C103.838 14.08 105.118 14.3787 106.12 14.976C107.123 15.552 107.87 16.4053 108.36 17.536C108.851 18.6453 109.096 20 109.096 21.6C109.096 23.6053 108.766 25.1413 108.104 26.208C107.443 27.2533 106.547 27.9787 105.416 28.384C104.286 28.7893 103.016 28.992 101.608 28.992H99.3043V40H93.5763ZM99.3043 24.992H101.224C101.928 24.992 102.462 24.864 102.824 24.608C103.187 24.352 103.422 23.968 103.528 23.456C103.656 22.944 103.72 22.2933 103.72 21.504C103.72 20.8427 103.667 20.2667 103.56 19.776C103.475 19.264 103.251 18.8587 102.888 18.56C102.526 18.2613 101.96 18.112 101.192 18.112H99.3043V24.992ZM111.89 40V14.08H117.618V40H111.89ZM119.787 40L124.811 26.048L120.011 14.08H125.419L128.267 21.088L130.571 14.08H135.339L130.795 27.552L135.851 40H130.475L127.307 32.256L124.523 40H119.787ZM136.703 40L141.599 14.08H148.127L152.959 40H147.679L146.815 34.528H143.007L142.111 40H136.703ZM143.519 31.104H146.271L144.895 20.992L143.519 31.104ZM155.576 40V14.08H162.328C163.438 14.08 164.483 14.1653 165.464 14.336C166.467 14.5067 167.352 14.8373 168.12 15.328C168.888 15.7973 169.486 16.48 169.912 17.376C170.36 18.2507 170.584 19.4133 170.584 20.864C170.584 21.9093 170.424 22.7947 170.104 23.52C169.806 24.224 169.368 24.7893 168.792 25.216C168.238 25.6427 167.566 25.9307 166.776 26.08C167.779 26.208 168.622 26.5387 169.304 27.072C169.987 27.584 170.499 28.2773 170.84 29.152C171.203 30.0267 171.384 31.0827 171.384 32.32C171.384 33.664 171.203 34.8267 170.84 35.808C170.499 36.768 169.998 37.5573 169.336 38.176C168.675 38.7947 167.854 39.2533 166.872 39.552C165.912 39.8507 164.803 40 163.544 40H155.576ZM161.304 36H162.52C163.779 36 164.643 35.68 165.112 35.04C165.603 34.4 165.848 33.4613 165.848 32.224C165.848 31.2427 165.742 30.464 165.528 29.888C165.315 29.312 164.963 28.896 164.472 28.64C163.982 28.3627 163.32 28.224 162.488 28.224H161.304V36ZM161.304 24.448H162.424C163.299 24.448 163.96 24.32 164.408 24.064C164.856 23.7867 165.155 23.392 165.304 22.88C165.475 22.368 165.56 21.7493 165.56 21.024C165.56 20.3413 165.432 19.776 165.176 19.328C164.942 18.8587 164.579 18.5067 164.088 18.272C163.619 18.0373 163.022 17.92 162.296 17.92H161.304V24.448ZM173.078 40L177.974 14.08H184.502L189.334 40H184.054L183.19 34.528H179.382L178.486 40H173.078ZM179.894 31.104H182.646L181.27 20.992L179.894 31.104ZM198.635 40.672V36.672C199.211 36.672 199.701 36.64 200.107 36.576C200.512 36.512 200.832 36.3947 201.067 36.224C201.301 36.032 201.472 35.7653 201.579 35.424C201.685 35.0613 201.739 34.6027 201.739 34.048V14.08H207.467V34.304C207.467 35.712 207.285 36.896 206.923 37.856C206.581 38.7947 205.973 39.4987 205.099 39.968C204.224 40.4373 202.997 40.672 201.419 40.672H198.635ZM218.719 40.384C216.778 40.384 215.242 40.0427 214.111 39.36C212.98 38.6773 212.17 37.696 211.679 36.416C211.188 35.136 210.943 33.6107 210.943 31.84V22.208C210.943 20.416 211.188 18.8907 211.679 17.632C212.17 16.3733 212.98 15.4133 214.111 14.752C215.242 14.0693 216.778 13.728 218.719 13.728C220.682 13.728 222.228 14.0693 223.359 14.752C224.511 15.4133 225.332 16.3733 225.823 17.632C226.314 18.8907 226.559 20.416 226.559 22.208V31.84C226.559 33.6107 226.314 35.136 225.823 36.416C225.332 37.696 224.511 38.6773 223.359 39.36C222.228 40.0427 220.682 40.384 218.719 40.384ZM218.719 36.32C219.316 36.32 219.754 36.1707 220.031 35.872C220.308 35.5733 220.49 35.1893 220.575 34.72C220.66 34.2507 220.703 33.7707 220.703 33.28V20.8C220.703 20.288 220.66 19.808 220.575 19.36C220.49 18.8907 220.308 18.5067 220.031 18.208C219.754 17.9093 219.316 17.76 218.719 17.76C218.164 17.76 217.748 17.9093 217.471 18.208C217.194 18.5067 217.012 18.8907 216.927 19.36C216.842 19.808 216.799 20.288 216.799 20.8V33.28C216.799 33.7707 216.831 34.2507 216.895 34.72C216.98 35.1893 217.151 35.5733 217.407 35.872C217.684 36.1707 218.122 36.32 218.719 36.32ZM230.045 40V14.08H236.797C237.906 14.08 238.952 14.1653 239.933 14.336C240.936 14.5067 241.821 14.8373 242.589 15.328C243.357 15.7973 243.954 16.48 244.381 17.376C244.829 18.2507 245.053 19.4133 245.053 20.864C245.053 21.9093 244.893 22.7947 244.573 23.52C244.274 24.224 243.837 24.7893 243.261 25.216C242.706 25.6427 242.034 25.9307 241.245 26.08C242.248 26.208 243.09 26.5387 243.773 27.072C244.456 27.584 244.968 28.2773 245.309 29.152C245.672 30.0267 245.853 31.0827 245.853 32.32C245.853 33.664 245.672 34.8267 245.309 35.808C244.968 36.768 244.466 37.5573 243.805 38.176C243.144 38.7947 242.322 39.2533 241.341 39.552C240.381 39.8507 239.272 40 238.013 40H230.045ZM235.773 36H236.989C238.248 36 239.112 35.68 239.581 35.04C240.072 34.4 240.317 33.4613 240.317 32.224C240.317 31.2427 240.21 30.464 239.997 29.888C239.784 29.312 239.432 28.896 238.941 28.64C238.45 28.3627 237.789 28.224 236.957 28.224H235.773V36ZM235.773 24.448H236.893C237.768 24.448 238.429 24.32 238.877 24.064C239.325 23.7867 239.624 23.392 239.773 22.88C239.944 22.368 240.029 21.7493 240.029 21.024C240.029 20.3413 239.901 19.776 239.645 19.328C239.41 18.8587 239.048 18.5067 238.557 18.272C238.088 18.0373 237.49 17.92 236.765 17.92H235.773V24.448ZM255.738 40.384C254.116 40.384 252.762 40.096 251.674 39.52C250.586 38.944 249.764 38.0587 249.21 36.864C248.655 35.648 248.346 34.08 248.282 32.16L253.178 31.424C253.199 32.5333 253.295 33.4293 253.466 34.112C253.658 34.7947 253.914 35.2853 254.234 35.584C254.575 35.8827 254.98 36.032 255.45 36.032C256.047 36.032 256.431 35.8293 256.602 35.424C256.794 35.0187 256.89 34.592 256.89 34.144C256.89 33.0773 256.634 32.1813 256.122 31.456C255.61 30.7093 254.916 29.9627 254.042 29.216L251.802 27.264C250.82 26.432 249.988 25.4933 249.306 24.448C248.644 23.3813 248.314 22.0693 248.314 20.512C248.314 18.3147 248.964 16.64 250.266 15.488C251.567 14.3147 253.338 13.728 255.578 13.728C256.964 13.728 258.074 13.9627 258.906 14.432C259.759 14.9013 260.399 15.52 260.826 16.288C261.274 17.0347 261.572 17.8347 261.722 18.688C261.892 19.52 261.988 20.32 262.01 21.088L257.082 21.696C257.06 20.928 257.007 20.2667 256.922 19.712C256.858 19.136 256.708 18.6987 256.474 18.4C256.239 18.08 255.876 17.92 255.385 17.92C254.852 17.92 254.458 18.144 254.202 18.592C253.967 19.04 253.85 19.488 253.85 19.936C253.85 20.896 254.074 21.6853 254.522 22.304C254.991 22.9013 255.599 23.5307 256.345 24.192L258.49 26.08C259.62 27.04 260.57 28.128 261.338 29.344C262.127 30.56 262.522 32.064 262.522 33.856C262.522 35.072 262.244 36.1813 261.69 37.184C261.135 38.1653 260.346 38.944 259.322 39.52C258.319 40.096 257.124 40.384 255.738 40.384Z" fill="#00816D"/>
</svg>
